<svg width="36" height="36" viewBox="0 0 36 36" fill="none" xmlns="http://www.w3.org/2000/svg">
<path d="M20.6764 5.45125L20.383 6.40723L20.6764 5.45125ZM15.7723 5.35377L16.0231 6.3218L15.7723 5.35377ZM13.4839 6.28792L13.9823 7.15487L13.4839 6.28792ZM8.99991 14.596L9.99964 14.6193L8.99991 14.596ZM8.41949 19.5528L7.44384 19.3334L8.41949 19.5528ZM6.68988 24.2104L7.56728 24.6902L6.68988 24.2104ZM18.4096 26.9948L18.3941 25.9949L18.4096 26.9948ZM28.4096 26.9845L28.414 25.9845L28.4096 26.9845ZM30.2254 25.6009L31.0106 24.9816L30.2254 25.6009ZM28.907 23.4981L28.0075 23.9349L28.907 23.4981ZM28.0149 21.1757L28.9756 20.898L28.0149 21.1757ZM27.4549 18.746L26.4696 18.9168L27.4549 18.746ZM26.8312 12.5677L27.822 12.4324C27.6954 11.5054 27.4294 10.6184 27.0249 9.77505L26.1232 10.2075L25.2216 10.64C25.536 11.2956 25.742 11.9821 25.8404 12.703L26.8312 12.5677ZM26.1232 10.2075L27.0249 9.77505C26.6288 8.94933 26.1348 8.1853 25.5442 7.48463L24.7796 8.12916L24.015 8.77368C24.4969 9.34526 24.8987 9.96682 25.2216 10.64L26.1232 10.2075ZM24.7796 8.12916L25.5442 7.48463C24.9438 6.77237 24.2502 6.1623 23.4661 5.65641L22.924 6.49671L22.3818 7.337C22.9995 7.73547 23.543 8.21369 24.015 8.77368L24.7796 8.12916ZM22.924 6.49671L23.4661 5.65641C22.688 5.15442 21.8551 4.76701 20.9698 4.49527L20.6764 5.45125L20.383 6.40723C21.0927 6.62507 21.7582 6.93463 22.3818 7.337L22.924 6.49671ZM20.6764 5.45125L20.9698 4.49527C20.0829 4.22302 19.1745 4.07863 18.2474 4.06259L18.2301 5.06244L18.2128 6.06229C18.9524 6.07509 19.6749 6.1899 20.383 6.40723L20.6764 5.45125ZM18.2301 5.06244L18.2474 4.06259C17.3238 4.04662 16.4144 4.15438 15.5215 4.38574L15.7723 5.35377L16.0231 6.3218C16.7406 6.13589 17.4697 6.04944 18.2128 6.06229L18.2301 5.06244ZM15.7723 5.35377L15.5215 4.38574C14.6297 4.61681 13.7836 4.96216 12.9855 5.42097L13.4839 6.28792L13.9823 7.15487C14.625 6.78541 15.3045 6.508 16.0231 6.3218L15.7723 5.35377ZM13.4839 6.28792L12.9855 5.42097C12.1845 5.88144 11.4612 6.44394 10.8177 7.10681L11.5352 7.80335L12.2528 8.49988C12.7667 7.97046 13.3425 7.52267 13.9823 7.15487L13.4839 6.28792ZM11.5352 7.80335L10.8177 7.10681C10.1723 7.77172 9.63339 8.51542 9.20287 9.33555L10.0883 9.80034L10.9737 10.2651C11.315 9.61491 11.7408 9.02728 12.2528 8.49988L11.5352 7.80335ZM10.0883 9.80034L9.20287 9.33555C8.77212 10.1561 8.46682 11.0221 8.28807 11.9307L9.26926 12.1237L10.2504 12.3168C10.3919 11.5979 10.6326 10.9149 10.9737 10.2651L10.0883 9.80034ZM9.26926 12.1237L8.28807 11.9307C8.1169 12.8007 8.02097 13.6816 8.00019 14.5726L8.99991 14.596L9.99964 14.6193C10.0178 13.8415 10.1014 13.0742 10.2504 12.3168L9.26926 12.1237ZM8.99991 14.596L8.00019 14.5726C7.9814 15.3779 7.92741 16.1803 7.83821 16.9802L8.83205 17.091L9.82589 17.2018C9.92157 16.3438 9.97949 15.4829 9.99964 14.6193L8.99991 14.596ZM8.83205 17.091L7.83821 16.9802C7.74983 17.7727 7.61837 18.557 7.44384 19.3334L8.41949 19.5528L9.39514 19.7721C9.5858 18.924 9.72939 18.0672 9.82589 17.2018L8.83205 17.091ZM8.41949 19.5528L7.44384 19.3334C7.27071 20.1036 7.04864 20.8592 6.77754 21.6006L7.71672 21.944L8.6559 22.2874C8.95664 21.465 9.20308 20.6265 9.39514 19.7721L8.41949 19.5528ZM7.71672 21.944L6.77754 21.6006C6.50875 22.3357 6.18711 23.0456 5.81249 23.7307L6.68988 24.2104L7.56728 24.6902C7.98994 23.9173 8.35286 23.1162 8.6559 22.2874L7.71672 21.944ZM6.68988 24.2104L5.81249 23.7307C5.44316 24.4061 5.04412 24.9878 4.61845 25.4815L5.37577 26.1345L6.13309 26.7875C6.66228 26.1738 7.13932 25.4728 7.56728 24.6902L6.68988 24.2104ZM5.37577 26.1345L4.61845 25.4815C4.46437 25.6601 4.29678 25.8896 4.19958 26.1599C4.09539 26.4496 4.04467 26.8838 4.30799 27.2967C4.54347 27.666 4.9063 27.8149 5.13753 27.8797C5.3852 27.9492 5.65225 27.9704 5.90425 27.9717L5.90962 26.9717L5.91499 25.9717C5.83758 25.9713 5.77892 25.9677 5.73642 25.9631C5.69288 25.9583 5.6755 25.9535 5.67748 25.954C5.67791 25.9541 5.71639 25.9645 5.77287 25.9993C5.83186 26.0356 5.9199 26.1047 5.99433 26.2214C6.16867 26.4948 6.1109 26.7552 6.08158 26.8367C6.05925 26.8988 6.04845 26.8857 6.13309 26.7875L5.37577 26.1345ZM5.90962 26.9717L5.90425 27.9717C6.73475 27.9762 7.56525 27.9842 8.39575 27.9957L8.40962 26.9958L8.42349 25.9959C7.58732 25.9843 6.75116 25.9762 5.91499 25.9717L5.90962 26.9717ZM8.40962 26.9958L8.39575 27.9957C9.23602 28.0073 10.0763 28.0102 10.9166 28.0044L10.9096 27.0044L10.9027 26.0045C10.0763 26.0102 9.24989 26.0073 8.42349 25.9959L8.40962 26.9958ZM10.9096 27.0044L10.9166 28.0044C11.7422 27.9987 12.5679 28.0025 13.3936 28.0157L13.4096 27.0158L13.4257 26.016C12.5847 26.0025 11.7437 25.9986 10.9027 26.0045L10.9096 27.0044ZM13.4096 27.0158L13.3936 28.0157C14.2351 28.0292 15.0767 28.0323 15.9183 28.025L15.9096 27.0251L15.901 26.0251C15.0759 26.0322 14.2508 26.0292 13.4257 26.016L13.4096 27.0158ZM15.9096 27.0251L15.9183 28.025C16.7539 28.0178 17.5895 28.0077 18.4252 27.9947L18.4096 26.9948L18.3941 25.9949C17.563 26.0078 16.732 26.0179 15.901 26.0251L15.9096 27.0251ZM18.4096 26.9948L18.4252 27.9947C19.2448 27.9819 20.0644 27.986 20.8841 28.007L20.9096 27.0073L20.9352 26.0076C20.0881 25.986 19.2411 25.9817 18.3941 25.9949L18.4096 26.9948ZM20.9096 27.0073L20.8841 28.007C21.7255 28.0285 22.5669 28.0398 23.4083 28.0409L23.4096 27.0409L23.4109 26.0409C22.5857 26.0398 21.7604 26.0287 20.9352 26.0076L20.9096 27.0073ZM23.4096 27.0409L23.4083 28.0409C24.2505 28.042 25.0928 28.0318 25.935 28.0105L25.9096 27.0108L25.8843 26.0111C25.0598 26.032 24.2354 26.0419 23.4109 26.0409L23.4096 27.0409ZM25.9096 27.0108L25.935 28.0105C26.7584 27.9896 27.5819 27.9809 28.4053 27.9845L28.4096 26.9845L28.414 25.9845C27.5707 25.9808 26.7275 25.9897 25.8843 26.0111L25.9096 27.0108ZM28.4096 26.9845L28.4053 27.9845C29.2733 27.9883 30.0315 27.9219 30.6211 27.7419L30.3291 26.7855L30.037 25.8291C29.7341 25.9216 29.2126 25.988 28.414 25.9845L28.4096 26.9845ZM30.3291 26.7855L30.6211 27.7419C30.8557 27.6703 31.1453 27.5296 31.364 27.2475C31.5969 26.947 31.6605 26.6017 31.6341 26.3C31.5893 25.7881 31.2821 25.3258 31.0106 24.9816L30.2254 25.6009L29.4403 26.2203C29.545 26.353 29.6051 26.4476 29.6363 26.5071C29.671 26.5733 29.6488 26.5559 29.6417 26.4743C29.6326 26.37 29.6533 26.1897 29.7833 26.0221C29.8991 25.8728 30.0256 25.8326 30.037 25.8291L30.3291 26.7855ZM30.2254 25.6009L31.0106 24.9816C30.5398 24.3847 30.1386 23.7449 29.8065 23.0612L28.907 23.4981L28.0075 23.9349C28.4025 24.7482 28.8803 25.5103 29.4403 26.2203L30.2254 25.6009ZM28.907 23.4981L29.8065 23.0612C29.4678 22.3639 29.191 21.643 28.9756 20.898L28.0149 21.1757L27.0543 21.4533C27.3012 22.3078 27.619 23.1352 28.0075 23.9349L28.907 23.4981ZM28.0149 21.1757L28.9756 20.898C28.7546 20.1334 28.5762 19.3591 28.4402 18.5751L27.4549 18.746L26.4696 18.9168C26.6181 19.7729 26.813 20.6185 27.0543 21.4533L28.0149 21.1757ZM27.4549 18.746L28.4402 18.5751C28.3021 17.7786 28.1926 16.9778 28.1116 16.1726L27.1167 16.2726L26.1217 16.3726C26.2074 17.2252 26.3233 18.0733 26.4696 18.9168L27.4549 18.746ZM27.1167 16.2726L28.1116 16.1726C28.029 15.3507 27.9934 14.7758 27.9958 14.4232L26.9959 14.4165L25.9959 14.4097C25.9927 14.8741 26.0377 15.5367 26.1217 16.3726L27.1167 16.2726ZM26.9959 14.4165L27.9958 14.4232C27.9991 13.9402 27.9358 13.2657 27.822 12.4324L26.8312 12.5677L25.8404 12.703C25.9517 13.5176 25.9981 14.0757 25.9959 14.4097L26.9959 14.4165Z" fill="#C23D00"/>
<path d="M21.46 29.0037C21.1084 29.6098 20.6037 30.113 19.9965 30.4627C19.3893 30.8125 18.7008 30.9966 18 30.9966C17.2993 30.9966 16.6108 30.8125 16.0036 30.4627C15.3964 30.113 14.8917 29.6098 14.54 29.0037" fill="#C23D00"/>
</svg>
