<svg width="22" height="22" viewBox="0 0 22 22" fill="none" xmlns="http://www.w3.org/2000/svg">
<path d="M12.5079 0.0947266C13.4141 0.217949 14.2958 0.454882 15.1407 0.805664C15.9863 1.15691 16.7739 1.61406 17.5001 2.17285C18.2258 2.7315 18.8718 3.3753 19.4297 4.10254C19.9911 4.83468 20.4436 5.63521 20.7813 6.49316C21.1115 7.33283 21.3434 8.19807 21.4766 9.08691C21.5379 9.49606 21.581 9.81269 21.6094 10.0244C21.6233 10.1279 21.6338 10.216 21.6407 10.2822C21.6438 10.3119 21.6466 10.3554 21.6485 10.3994C21.6491 10.4145 21.6534 10.4677 21.6485 10.5322C21.6467 10.5548 21.6384 10.6525 21.6016 10.7666C21.5867 10.8127 21.5437 10.915 21.461 11.0322C21.4786 11.0072 21.4993 10.9919 21.5079 10.9775C21.5573 10.895 21.5867 10.8254 21.5938 10.8057L21.6172 10.7119C21.6108 10.7484 21.6007 10.8144 21.586 10.915C21.557 11.1134 21.5148 11.4183 21.461 11.8291C21.3412 12.7432 21.1006 13.6248 20.7344 14.4697C20.376 15.296 19.9329 16.0809 19.4063 16.8135C18.8604 17.5728 18.2057 18.2335 17.4532 18.79C16.7191 19.3327 15.9278 19.778 15.086 20.126C14.2397 20.4756 13.3606 20.7083 12.4532 20.8291C11.5478 20.9496 10.6411 20.9569 9.73444 20.8447C8.87809 20.7385 8.03748 20.5886 7.21881 20.3994C6.62324 20.2618 6.02494 20.292 5.40631 20.501C4.6142 20.7694 3.81804 21.0368 3.0235 21.2979C2.58086 21.4433 2.13708 21.5424 1.72662 21.54C1.31611 21.5376 0.798639 21.4292 0.421936 21.001C0.0803025 20.6111 -0.00226519 20.126 6.10352e-05 19.7354C0.00284855 19.3361 0.0926658 18.8987 0.226624 18.4541C0.471885 17.6404 0.73728 16.8322 1.0235 16.0322C1.24018 15.4267 1.2704 14.8427 1.12506 14.2588C0.920147 13.436 0.768082 12.5916 0.664124 11.7275C0.55503 10.8197 0.560228 9.90841 0.679749 9.00098C0.800891 8.08228 1.04937 7.19306 1.42194 6.34473C1.78946 5.50859 2.25141 4.72829 2.81256 4.00879C3.37436 3.28865 4.01928 2.64723 4.74225 2.08691C5.48021 1.51529 6.29048 1.06097 7.16412 0.735352C8.0124 0.419306 8.88593 0.204748 9.78131 0.0869141C10.6896 -0.0324739 11.6003 -0.0283655 12.5079 0.0947266ZM10.0469 2.07129C9.30045 2.16941 8.56784 2.34632 7.85944 2.61035C7.17608 2.86524 6.5469 3.21729 5.96881 3.66504C5.37671 4.12368 4.85023 4.64657 4.39069 5.23535C3.93105 5.82454 3.55122 6.46404 3.25006 7.14941C2.95371 7.8242 2.76069 8.528 2.66412 9.25879C2.56627 10.0009 2.55941 10.7435 2.6485 11.4854C2.7428 12.2702 2.87824 13.0341 3.06256 13.7744C3.30675 14.7549 3.25122 15.7402 2.90631 16.7041C2.6313 17.4727 2.37633 18.2505 2.14069 19.0322C2.08841 19.2059 2.06865 19.3526 2.04694 19.4697C2.14211 19.4478 2.26303 19.4439 2.3985 19.3994C3.18604 19.1406 3.97274 18.8764 4.75787 18.6104C5.71556 18.2859 6.69327 18.2303 7.66412 18.4541C8.41352 18.6273 9.18666 18.7624 9.97662 18.8604C10.7143 18.9518 11.4512 18.9503 12.1876 18.8525C12.923 18.7546 13.6342 18.5578 14.3204 18.2744C15.0113 17.9888 15.6621 17.627 16.2657 17.1807C16.8515 16.7474 17.3567 16.2322 17.7813 15.6416C18.2234 15.0262 18.5976 14.3738 18.8985 13.6807C19.1909 13.0065 19.3807 12.3016 19.4766 11.5713C19.5307 11.1583 19.5783 10.8395 19.6094 10.626C19.6223 10.5381 19.6303 10.461 19.6407 10.3994C19.6369 10.3691 19.6308 10.333 19.6251 10.29C19.5987 10.0937 19.561 9.79077 19.5001 9.38379C19.3891 8.64337 19.1903 7.92113 18.9141 7.21973C18.6451 6.53723 18.2906 5.9043 17.8438 5.32129C17.3919 4.73224 16.8687 4.21107 16.2813 3.75879C15.6937 3.30667 15.0588 2.93345 14.3751 2.64941C13.6894 2.36474 12.9775 2.17126 12.2422 2.07129C11.5105 1.97183 10.7794 1.97526 10.0469 2.07129ZM21.2188 11.2588C21.2605 11.2291 21.3048 11.2178 21.3282 11.1963C21.3452 11.1806 21.3527 11.1569 21.3672 11.1416C21.3274 11.1832 21.2758 11.2181 21.2188 11.2588ZM19.8751 9.8291C19.867 9.83899 19.859 9.85054 19.8516 9.86035C19.8667 9.84041 19.8862 9.82043 19.9063 9.79785C19.8961 9.80925 19.8839 9.81822 19.8751 9.8291ZM20.1876 9.57129C20.1587 9.58648 20.1352 9.60914 20.1094 9.62598C20.1343 9.60987 20.1577 9.5869 20.1876 9.57129ZM20.6485 9.46191C20.4908 9.46237 20.3569 9.50332 20.2422 9.55566C20.3514 9.50609 20.4858 9.46239 20.6485 9.46191Z" fill="#C23D00"/>
</svg>
