<svg width="26" height="26" viewBox="0 0 26 26" fill="none" xmlns="http://www.w3.org/2000/svg">
<path d="M21.7163 7.50666C21.6038 6.68269 21.3678 5.89597 21.0083 5.1465C20.6488 4.39703 20.2009 3.70424 19.6647 3.06811C19.1285 2.43199 18.5099 1.88784 17.809 1.43566C17.1082 0.983484 16.359 0.634999 15.5615 0.390207C14.764 0.145415 13.9485 0.0158122 13.1152 0.00139736C12.2818 -0.0130174 11.4626 0.0840919 10.6574 0.292725C9.85216 0.501359 9.08936 0.812742 8.36898 1.22688C7.64859 1.64101 6.99904 2.14615 6.42033 2.7423C5.84162 3.33845 5.3593 4.00412 4.97337 4.7393C4.58744 5.47448 4.31443 6.24894 4.15434 7.06268C3.99424 7.87642 3.90446 8.7005 3.88499 9.53493C3.86553 10.3694 3.80957 11.201 3.71713 12.0299C3.62469 12.8589 3.48717 13.6795 3.30457 14.4917C3.12197 15.304 2.88772 16.1011 2.6018 16.883C2.31589 17.6649 1.97361 18.4204 1.57496 19.1494C1.17632 19.8784 0.738282 20.5198 0.26085 21.0735C-0.216583 21.6271 -0.0386326 21.9062 0.794701 21.9107C1.62803 21.9151 2.46137 21.9232 3.2947 21.9347C4.12803 21.9463 4.96137 21.9492 5.7947 21.9434C6.62803 21.9376 7.46137 21.9414 8.2947 21.9548C9.12803 21.9681 9.96137 21.9712 10.7947 21.964C11.628 21.9568 12.4614 21.9467 13.2947 21.9337C14.128 21.9208 14.9614 21.9249 15.7947 21.9462C16.628 21.9675 17.4614 21.9787 18.2947 21.9798C19.128 21.9809 19.9614 21.9709 20.7947 21.9497C21.628 21.9286 22.4614 21.9198 23.2947 21.9234C24.128 21.9271 24.7678 21.8607 25.2141 21.7244C25.6604 21.5881 25.6259 21.1933 25.1105 20.5399C24.5951 19.8865 24.1556 19.1855 23.7921 18.437C23.4285 17.6885 23.1312 16.9143 22.9 16.1146C22.6689 15.3149 22.4822 14.505 22.34 13.6849C22.1978 12.8649 22.085 12.0404 22.0017 11.2115C21.9184 10.3826 21.8782 9.76394 21.8809 9.35541C21.8837 8.94688 21.8288 8.33063 21.7163 7.50666Z" fill="#C23D00"/>
<path d="M16.3451 23.9426C15.9935 24.5488 15.4888 25.0519 14.8815 25.4017C14.2743 25.7514 13.5858 25.9355 12.8851 25.9355C12.1843 25.9355 11.4959 25.7514 10.8886 25.4017C10.2814 25.0519 9.7767 24.5488 9.42508 23.9426" fill="#C23D00"/>
</svg>
