<svg width="29" height="29" viewBox="0 0 29 29" fill="none" xmlns="http://www.w3.org/2000/svg">
<path d="M27.0696 17.3937L26.1175 17.0877L27.0696 17.3937ZM22.9924 23.5089L22.3589 22.7352L22.9924 23.5089ZM20.9294 24.8872L21.4016 25.7686L20.9294 24.8872ZM6.57437 26.0133L6.91796 26.9524L6.57437 26.0133ZM4.20547 26.8123L4.50088 27.7677L4.20547 26.8123ZM1.85815 27.553L1.55152 26.6012L1.85815 27.553ZM1.10117 26.7387L0.152638 26.422L1.10117 26.7387ZM1.88051 24.3633L0.928726 24.0565L1.88051 24.3633ZM3.09681 19.645L2.09689 19.6322L3.09681 19.645ZM2.74325 17.2849L1.78771 17.5797L2.74325 17.2849ZM6.9873 3.85273L6.35612 3.07709L6.9873 3.85273ZM9.0655 2.49967L9.51939 3.39073L9.0655 2.49967ZM11.3632 1.54622L11.0528 0.595628L11.3632 1.54622ZM27.1305 10.0647L26.1778 10.3686L27.1305 10.0647ZM27.5717 14.9652L26.5764 14.8684C26.5028 15.6255 26.3498 16.3649 26.1175 17.0877L27.0696 17.3937L28.0216 17.6997C28.2977 16.8407 28.4795 15.9611 28.567 15.0621L27.5717 14.9652ZM27.0696 17.3937L26.1175 17.0877C25.8787 17.8309 25.5853 18.5526 25.2371 19.2533L26.1327 19.6983L27.0282 20.1433C27.4209 19.353 27.7521 18.5384 28.0216 17.6997L27.0696 17.3937ZM26.1327 19.6983L25.2371 19.2533C24.903 19.9257 24.4928 20.5473 24.0056 21.1196L24.767 21.7678L25.5284 22.4161C26.1212 21.7199 26.6215 20.9618 27.0282 20.1433L26.1327 19.6983ZM24.767 21.7678L24.0056 21.1196C23.5043 21.7084 22.9555 22.2467 22.3589 22.7352L22.9924 23.5089L23.6259 24.2827C24.3154 23.7182 24.9497 23.0958 25.5284 22.4161L24.767 21.7678ZM22.9924 23.5089L22.3589 22.7352C21.766 23.2206 21.1323 23.644 20.4571 24.0057L20.9294 24.8872L21.4016 25.7686C22.1911 25.3457 22.9328 24.8502 23.6259 24.2827L22.9924 23.5089ZM20.9294 24.8872L20.4571 24.0057C19.7809 24.368 19.0767 24.6628 18.3438 24.8904L18.6403 25.8454L18.9369 26.8004C19.7914 26.5351 20.6132 26.191 21.4016 25.7686L20.9294 24.8872ZM18.6403 25.8454L18.3438 24.8904C17.617 25.1161 16.8755 25.2633 16.118 25.3323L16.2088 26.3282L16.2995 27.324C17.1967 27.2423 18.0762 27.0677 18.9369 26.8004L18.6403 25.8454ZM16.2088 26.3282L16.118 25.3323C15.3507 25.4022 14.584 25.4026 13.8172 25.3334L13.7274 26.3294L13.6376 27.3253C14.5246 27.4053 15.4122 27.4049 16.2995 27.324L16.2088 26.3282ZM13.7274 26.3294L13.8172 25.3334C13.0593 25.2651 12.3173 25.1194 11.5899 24.896L11.2963 25.8519L11.0028 26.8078C11.8628 27.072 12.7415 27.2446 13.6376 27.3253L13.7274 26.3294ZM11.2963 25.8519L11.5899 24.896C10.6939 24.6208 9.7911 24.4984 8.88597 24.5358L8.92724 25.5349L8.96851 26.5341C9.63469 26.5066 10.3113 26.5955 11.0028 26.8078L11.2963 25.8519ZM8.92724 25.5349L8.88597 24.5358C7.99099 24.5728 7.10491 24.7544 6.23078 25.0742L6.57437 26.0133L6.91796 26.9524C7.60969 26.6993 8.29219 26.562 8.96851 26.5341L8.92724 25.5349ZM6.57437 26.0133L6.23078 25.0742C5.46377 25.3548 4.6902 25.6157 3.91007 25.8569L4.20547 26.8123L4.50088 27.7677C5.31341 27.5164 6.11911 27.2447 6.91796 26.9524L6.57437 26.0133ZM4.20547 26.8123L3.91007 25.8569C3.11011 26.1043 2.32392 26.3524 1.55152 26.6012L1.85815 27.553L2.16478 28.5048C2.92948 28.2585 3.70817 28.0128 4.50088 27.7677L4.20547 26.8123ZM1.85815 27.553L1.55152 26.6012C1.41143 26.6463 1.37194 26.641 1.40189 26.6417C1.43954 26.6425 1.64366 26.6593 1.82491 26.8543C1.99948 27.0421 2.00012 27.2323 1.99998 27.2451C1.99984 27.2581 2.00016 27.2038 2.04971 27.0554L1.10117 26.7387L0.152638 26.422C0.0702367 26.6689 0.00313538 26.9449 0.000101984 27.2233C-0.00293046 27.5017 0.0593439 27.8925 0.360084 28.216C0.667497 28.5467 1.06231 28.6343 1.35518 28.6411C1.64034 28.6478 1.9206 28.5835 2.16478 28.5048L1.85815 27.553ZM1.10117 26.7387L2.04971 27.0554C2.3147 26.2617 2.57556 25.4665 2.83229 24.67L1.88051 24.3633L0.928726 24.0565C0.67413 24.8464 0.415434 25.6349 0.152638 26.422L1.10117 26.7387ZM1.88051 24.3633L2.83229 24.67C3.08576 23.8837 3.34762 23.1001 3.61789 22.3193L2.6729 21.9922L1.72791 21.6651C1.45297 22.4594 1.18658 23.2565 0.928726 24.0565L1.88051 24.3633ZM2.6729 21.9922L3.61789 22.3193C3.92296 21.4379 4.08524 20.5496 4.09672 19.6579L3.09681 19.645L2.09689 19.6322C2.08835 20.2949 1.96803 20.9713 1.72791 21.6651L2.6729 21.9922ZM3.09681 19.645L4.09672 19.6579C4.10817 18.7692 3.97303 17.8787 3.69879 16.99L2.74325 17.2849L1.78771 17.5797C2.00489 18.2835 2.10546 18.9665 2.09689 19.6322L3.09681 19.645ZM2.74325 17.2849L3.69879 16.99C3.47686 16.2708 3.34454 15.537 3.30145 14.7868L2.3031 14.8441L1.30474 14.9014C1.35711 15.8131 1.51822 16.7064 1.78771 17.5797L2.74325 17.2849ZM2.3031 14.8441L3.30145 14.7868C3.25672 14.008 3.27311 13.232 3.35057 12.4581L2.35554 12.3585L1.36051 12.2589C1.27259 13.1373 1.25402 14.0183 1.30474 14.9014L2.3031 14.8441ZM2.35554 12.3585L3.35057 12.4581C3.42626 11.7019 3.58002 10.9624 3.81208 10.2384L2.85981 9.93317L1.90754 9.62792C1.63262 10.4856 1.45019 11.363 1.36051 12.2589L2.35554 12.3585ZM2.85981 9.93317L3.81208 10.2384C4.04658 9.50688 4.3467 8.80391 4.71276 8.12874L3.83365 7.65211L2.95455 7.17548C2.52914 7.96012 2.18003 8.77785 1.90754 9.62792L2.85981 9.93317ZM3.83365 7.65211L4.71276 8.12874C5.07725 7.45646 5.50374 6.82634 5.99279 6.23759L5.22356 5.59862L4.45433 4.95965C3.88163 5.6491 3.38152 6.38797 2.95455 7.17548L3.83365 7.65211ZM5.22356 5.59862L5.99279 6.23759C6.48216 5.64846 7.02383 5.11226 7.61848 4.62837L6.9873 3.85273L6.35612 3.07709C5.66087 3.64285 5.02671 4.27058 4.45433 4.95965L5.22356 5.59862ZM6.9873 3.85273L7.61848 4.62837C8.20861 4.14814 8.84192 3.73582 9.51939 3.39073L9.0655 2.49967L8.6116 1.60861C7.80805 2.01794 7.05589 2.50765 6.35612 3.07709L6.9873 3.85273ZM9.0655 2.49967L9.51939 3.39073C10.2136 3.03709 10.9316 2.73917 11.6737 2.49681L11.3632 1.54622L11.0528 0.595628C10.2123 0.870125 9.39839 1.20783 8.6116 1.60861L9.0655 2.49967ZM11.3632 1.54622L11.6737 2.49681C12.393 2.26189 13.1299 2.11071 13.8858 2.04309L13.7967 1.04707L13.7076 0.0510435C12.8015 0.132101 11.9161 0.313688 11.0528 0.595628L11.3632 1.54622ZM13.7967 1.04707L13.8858 2.04309C14.6467 1.97502 15.4042 1.98754 16.1595 2.08052L16.2817 1.08801L16.4039 0.0955048C15.5079 -0.0147896 14.6088 -0.0295722 13.7076 0.0510435L13.7967 1.04707ZM16.2817 1.08801L16.1595 2.08052C16.9297 2.17532 17.6854 2.33361 18.4274 2.55546L18.7139 1.59737L19.0004 0.639278C18.1508 0.385265 17.2851 0.203981 16.4039 0.0955048L16.2817 1.08801ZM18.7139 1.59737L18.4274 2.55546C19.156 2.77331 19.8535 3.06459 20.5208 3.42977L21.0009 2.55252L21.4809 1.67527C20.6906 1.24279 19.8634 0.897304 19.0004 0.639278L18.7139 1.59737ZM21.0009 2.55252L20.5208 3.42977C21.1969 3.79968 21.8341 4.22724 22.4332 4.71289L23.0629 3.93607L23.6926 3.15926C23.0001 2.59783 22.2626 2.10302 21.4809 1.67527L21.0009 2.55252ZM23.0629 3.93607L22.4332 4.71289C23.0219 5.19011 23.5507 5.72536 24.0206 6.31958L24.805 5.69927L25.5894 5.07896C25.0281 4.36932 24.3956 3.72911 23.6926 3.15926L23.0629 3.93607ZM24.805 5.69927L24.0206 6.31958C24.4992 6.92472 24.9197 7.56694 25.2824 8.24684L26.1647 7.77609L27.047 7.30535C26.6279 6.52 26.1419 5.77768 25.5894 5.07896L24.805 5.69927ZM26.1647 7.77609L25.2824 8.24684C25.6448 8.92594 25.9432 9.63296 26.1778 10.3686L27.1305 10.0647L28.0832 9.76084C27.8119 8.91022 27.4664 8.09148 27.047 7.30535L26.1647 7.77609ZM27.1305 10.0647L26.1778 10.3686C26.4074 11.0884 26.5501 11.8199 26.6068 12.5647L27.6039 12.4888L28.601 12.4129C28.5325 11.5119 28.3596 10.6273 28.0832 9.76084L27.1305 10.0647ZM27.6039 12.4888L26.6068 12.5647C26.6381 12.976 26.6613 13.2837 26.6764 13.4884C26.684 13.5909 26.6895 13.6664 26.6929 13.7156C26.6947 13.7407 26.6957 13.7566 26.6962 13.7651C26.6966 13.7703 26.6964 13.7683 26.6962 13.7628C26.6961 13.762 26.6955 13.7495 26.6954 13.7328C26.6953 13.7282 26.6949 13.7011 26.6969 13.6665C26.6975 13.6561 26.7002 13.6025 26.713 13.5354C26.7177 13.5109 26.7357 13.4162 26.7869 13.3049C26.8178 13.2434 26.9158 13.0966 26.9878 13.0164C27.1163 12.9078 27.4727 12.7483 27.6952 12.7232V13.7232V14.7232C27.9178 14.6981 28.2741 14.5386 28.4027 14.4299C28.4746 14.3497 28.5726 14.2029 28.6036 14.1414C28.6548 14.0301 28.6728 13.9353 28.6775 13.9108C28.6903 13.8437 28.6931 13.7899 28.6937 13.7793C28.6957 13.7442 28.6953 13.7165 28.6952 13.7111C28.695 13.6929 28.6944 13.678 28.6942 13.6739C28.6937 13.662 28.693 13.6503 28.6925 13.6427C28.6914 13.6255 28.6899 13.6028 28.6881 13.5764C28.6843 13.5228 28.6786 13.444 28.671 13.3408C28.6557 13.134 28.6323 12.8246 28.601 12.4129L27.6039 12.4888ZM27.6952 13.7232V12.7232C27.4865 12.7452 27.16 12.8785 27.0441 12.9642C26.978 13.0264 26.8821 13.1411 26.8493 13.1899C26.7923 13.2803 26.7635 13.3591 26.7552 13.3822C26.7337 13.4414 26.7228 13.4896 26.7204 13.5002C26.7129 13.5328 26.7087 13.5589 26.7078 13.5643C26.705 13.5819 26.7031 13.5963 26.7026 13.6004C26.7011 13.6121 26.6998 13.6236 26.6989 13.6313C26.697 13.6485 26.6946 13.6713 26.6919 13.6978C26.6863 13.7517 26.6783 13.831 26.668 13.9348C26.6473 14.1429 26.6168 14.4542 26.5764 14.8684L27.5717 14.9652L28.567 15.0621C28.6073 14.6482 28.6377 14.3386 28.6581 14.1326C28.6684 14.0294 28.6761 13.9535 28.6812 13.9039C28.6838 13.8786 28.6855 13.8625 28.6865 13.8539C28.6871 13.8486 28.6869 13.8504 28.6863 13.8557C28.6861 13.8565 28.6846 13.8685 28.6821 13.8845C28.6813 13.8891 28.6772 13.9145 28.6699 13.9468C28.6675 13.9572 28.6566 14.0053 28.6352 14.0644C28.6269 14.0873 28.5981 14.1662 28.5411 14.2566C28.5083 14.3053 28.4124 14.42 28.3463 14.4822C28.2304 14.5679 27.9039 14.7012 27.6952 14.7232V13.7232Z" fill="#C23D00"/>
</svg>
