<svg width="29" height="29" viewBox="0 0 29 29" fill="none" xmlns="http://www.w3.org/2000/svg">
<path d="M27.6609 16.5396L26.6755 16.369L27.6609 16.5396ZM20.4098 26.1321L19.9549 25.2415L20.4098 26.1321ZM10.6986 27.017L10.4193 27.9772L10.6986 27.017ZM8.38633 26.0933L7.92709 26.9816L8.38633 26.0933ZM6.29249 24.7518L5.67725 25.5401L6.29249 24.7518ZM4.45276 23.0755L3.72494 23.7613L4.45276 23.0755ZM1.87893 18.8509L0.945268 19.2091L1.87893 18.8509ZM1.22198 16.4574L0.236294 16.626L1.22198 16.4574ZM1.91792 9.1205L0.99538 8.73459L1.91792 9.1205ZM3.05177 6.90234L3.90484 7.42413L3.05177 6.90234ZM12.2552 1.28996L13.1927 0.942038L12.2552 1.28996ZM11.9619 2.92454L11.0356 2.54786L11.9619 2.92454ZM11.332 5.31759L12.3238 5.4455L11.332 5.31759ZM11.7773 10.2142L10.8261 10.523L11.7773 10.2142ZM16.3648 15.8707L16.8561 14.9998L16.3648 15.8707ZM25.9221 16.3744L26.3107 17.2958L25.9221 16.3744ZM27.6609 16.5396L26.6755 16.369C26.5462 17.116 26.3353 17.8379 26.0427 18.5362L26.965 18.9228L27.8873 19.3093C28.2381 18.4721 28.4912 17.6053 28.6462 16.7102L27.6609 16.5396ZM26.965 18.9228L26.0427 18.5362C25.7402 19.258 25.3861 19.9522 24.9804 20.6191L25.8347 21.1389L26.6889 21.6587C27.1468 20.9062 27.5462 20.123 27.8873 19.3093L26.965 18.9228ZM25.8347 21.1389L24.9804 20.6191C24.579 21.2787 24.1227 21.899 23.6108 22.4805L24.3614 23.1412L25.112 23.802C25.7009 23.133 26.2267 22.4184 26.6889 21.6587L25.8347 21.1389ZM24.3614 23.1412L23.6108 22.4805C23.1075 23.0522 22.5496 23.5639 21.9361 24.0164L22.5297 24.8212L23.1232 25.6259C23.8513 25.089 24.5145 24.4807 25.112 23.802L24.3614 23.1412ZM22.5297 24.8212L21.9361 24.0164C21.3091 24.4788 20.6489 24.8871 19.9549 25.2415L20.4098 26.1321L20.8647 27.0227C21.6556 26.6187 22.4086 26.153 23.1232 25.6259L22.5297 24.8212ZM20.4098 26.1321L19.9549 25.2415C19.276 25.5883 18.5688 25.8588 17.8321 26.0534L18.0875 27.0202L18.3429 27.9871C19.2177 27.756 20.0587 27.4343 20.8647 27.0227L20.4098 26.1321ZM18.0875 27.0202L17.8321 26.0534C17.081 26.2518 16.3198 26.3851 15.5477 26.4534L15.6358 27.4495L15.724 28.4456C16.6092 28.3673 17.4824 28.2144 18.3429 27.9871L18.0875 27.0202ZM15.6358 27.4495L15.5477 26.4534C14.7742 26.5218 13.9997 26.526 13.2238 26.466L13.1466 27.463L13.0695 28.46C13.9552 28.5286 14.8402 28.5238 15.724 28.4456L15.6358 27.4495ZM13.1466 27.463L13.2238 26.466C12.4616 26.4069 11.7133 26.2706 10.9779 26.0567L10.6986 27.017L10.4193 27.9772C11.2864 28.2293 12.1701 28.3904 13.0695 28.46L13.1466 27.463ZM10.6986 27.017L10.9779 26.0567C10.2388 25.8418 9.52828 25.558 8.84557 25.205L8.38633 26.0933L7.92709 26.9816C8.72498 27.3941 9.55602 27.7261 10.4193 27.9772L10.6986 27.017ZM8.38633 26.0933L8.84557 25.205C8.16013 24.8507 7.51441 24.4369 6.90772 23.9634L6.29249 24.7518L5.67725 25.5401C6.38174 26.0899 7.13192 26.5706 7.92709 26.9816L8.38633 26.0933ZM6.29249 24.7518L6.90772 23.9634C6.29225 23.4831 5.71664 22.9587 5.18057 22.3897L4.45276 23.0755L3.72494 23.7613C4.33066 24.4041 4.98154 24.9972 5.67725 25.5401L6.29249 24.7518ZM4.45276 23.0755L5.18057 22.3897C4.66052 21.8378 4.20795 21.2358 3.82205 20.5825L2.96106 21.0911L2.10007 21.5997C2.56131 22.3806 3.10321 23.1014 3.72494 23.7613L4.45276 23.0755ZM2.96106 21.0911L3.82205 20.5825C3.42682 19.9135 3.09043 19.217 2.81259 18.4928L1.87893 18.8509L0.945268 19.2091C1.26313 20.0377 1.64816 20.8347 2.10007 21.5997L2.96106 21.0911ZM1.87893 18.8509L2.81259 18.4928C2.53825 17.7776 2.3367 17.0432 2.20766 16.2888L1.22198 16.4574L0.236294 16.626C0.387491 17.51 0.623908 18.3713 0.945268 19.2091L1.87893 18.8509ZM1.22198 16.4574L2.20766 16.2888C2.07657 15.5224 2.00752 14.7504 2.00047 13.9723L1.00051 13.9814L0.000555158 13.9904C0.00856572 14.8754 0.0871556 15.7541 0.236294 16.626L1.22198 16.4574ZM1.00051 13.9814L2.00047 13.9723C1.99352 13.2038 2.05876 12.4407 2.19637 11.6822L1.21244 11.5037L0.228498 11.3252C0.0684916 12.2072 -0.00754231 13.0958 0.000555158 13.9904L1.00051 13.9814ZM1.21244 11.5037L2.19637 11.6822C2.33228 10.9331 2.54686 10.2083 2.84045 9.5064L1.91792 9.1205L0.99538 8.73459C0.645945 9.56994 0.390206 10.4339 0.228498 11.3252L1.21244 11.5037ZM1.91792 9.1205L2.84045 9.5064C3.14232 8.78477 3.49706 8.09081 3.90484 7.42413L3.05177 6.90234L2.1987 6.38054C1.7377 7.13421 1.33654 7.91903 0.99538 8.73459L1.91792 9.1205ZM3.05177 6.90234L3.90484 7.42413C4.30428 6.77109 4.76474 6.16447 5.28685 5.6035L4.55485 4.9222L3.82284 4.2409C3.20963 4.89976 2.66803 5.61323 2.1987 6.38054L3.05177 6.90234ZM4.55485 4.9222L5.28685 5.6035C5.81527 5.03575 6.38855 4.51759 7.00718 4.0486L6.40305 3.25171L5.79891 2.45483C5.08861 2.99332 4.42976 3.58882 3.82284 4.2409L4.55485 4.9222ZM6.40305 3.25171L7.00718 4.0486C7.61631 3.58681 8.26599 3.19331 8.95717 2.8675L8.5308 1.96296L8.10442 1.05841C7.28754 1.44346 6.51872 1.90913 5.79891 2.45483L6.40305 3.25171ZM8.5308 1.96296L8.95717 2.8675C9.65394 2.53907 10.3738 2.28003 11.1175 2.09001L10.8699 1.12114L10.6224 0.152263C9.7553 0.373809 8.91572 0.675988 8.10442 1.05841L8.5308 1.96296ZM10.8699 1.12114L11.1175 2.09001C11.288 2.04644 11.4231 2.02127 11.5267 2.00904C11.633 1.9965 11.686 2.00004 11.6993 2.00166C11.7141 2.00346 11.6505 1.99906 11.5596 1.94032C11.454 1.87214 11.3646 1.76422 11.3177 1.63788L12.2552 1.28996L13.1927 0.942038C12.9561 0.304374 12.3854 0.0704689 11.9413 0.0163473C11.5258 -0.0342781 11.0659 0.0389358 10.6224 0.152263L10.8699 1.12114ZM12.2552 1.28996L11.3177 1.63788C11.287 1.55506 11.3214 1.56477 11.2862 1.76073C11.2541 1.93962 11.1779 2.19784 11.0356 2.54786L11.9619 2.92454L12.8882 3.30123C13.0596 2.87986 13.1891 2.47994 13.2548 2.11397C13.3174 1.76507 13.3416 1.34318 13.1927 0.942038L12.2552 1.28996ZM11.9619 2.92454L11.0356 2.54786C10.6895 3.39883 10.4575 4.28011 10.3402 5.18969L11.332 5.31759L12.3238 5.4455C12.419 4.70712 12.6069 3.99304 12.8882 3.30123L11.9619 2.92454ZM11.332 5.31759L10.3402 5.18969C10.2247 6.08526 10.2068 6.98254 10.2866 7.88024L11.2826 7.7917L12.2787 7.70316C12.2118 6.95001 12.2267 6.19788 12.3238 5.4455L11.332 5.31759ZM11.2826 7.7917L10.2866 7.88024C10.3666 8.78068 10.5466 9.66207 10.8261 10.523L11.7773 10.2142L12.7284 9.90539C12.4952 9.18719 12.3454 8.45357 12.2787 7.70316L11.2826 7.7917ZM11.7773 10.2142L10.8261 10.523C11.1074 11.3892 11.4886 12.2109 11.9691 12.9868L12.8193 12.4604L13.6695 11.9339C13.2733 11.2941 12.9599 10.6184 12.7284 9.90539L11.7773 10.2142ZM12.8193 12.4604L11.9691 12.9868C12.4513 13.7656 13.0231 14.4737 13.6833 15.1099L14.3772 14.3898L15.071 13.6696C14.5306 13.1489 14.0639 12.5708 13.6695 11.9339L12.8193 12.4604ZM14.3772 14.3898L13.6833 15.1099C14.3444 15.7468 15.0749 16.2912 15.8734 16.7417L16.3648 15.8707L16.8561 14.9998C16.2051 14.6325 15.6106 14.1895 15.071 13.6696L14.3772 14.3898ZM16.3648 15.8707L15.8734 16.7417C16.6597 17.1853 17.4842 17.5414 18.3458 17.8096L18.643 16.8547L18.9401 15.8999C18.2136 15.6738 17.5193 15.374 16.8561 14.9998L16.3648 15.8707ZM18.643 16.8547L18.3458 17.8096C19.2238 18.0827 20.1231 18.2372 21.0417 18.2726L21.0801 17.2733L21.1186 16.2741C20.3757 16.2455 19.6503 16.1209 18.9401 15.8999L18.643 16.8547ZM21.0801 17.2733L21.0417 18.2726C21.9473 18.3075 22.8454 18.2409 23.7346 18.073L23.5491 17.0904L23.3635 16.1078C22.6222 16.2477 21.8744 16.3032 21.1186 16.2741L21.0801 17.2733ZM23.5491 17.0904L23.7346 18.073C24.6197 17.9059 25.4788 17.6466 26.3107 17.2958L25.9221 16.3744L25.5334 15.453C24.8318 15.7489 24.1089 15.967 23.3635 16.1078L23.5491 17.0904ZM25.9221 16.3744L26.3107 17.2958C27.0733 16.9741 27.689 16.6772 28.06 16.4084L27.4731 15.5986L26.8863 14.7889C26.7227 14.9075 26.3043 15.1278 25.5334 15.453L25.9221 16.3744ZM27.4731 15.5986L28.06 16.4084C28.0418 16.4216 27.9728 16.47 27.8594 16.5051C27.7386 16.5425 27.5306 16.5745 27.2936 16.4883C27.0524 16.4006 26.9075 16.2366 26.8334 16.1149C26.7656 16.0035 26.7453 15.9115 26.7399 15.8842C26.7296 15.8326 26.7393 15.8385 26.7315 15.949C26.7248 16.0455 26.7077 16.1833 26.6755 16.369L27.6609 16.5396L28.6462 16.7102C28.7149 16.3134 28.7737 15.8561 28.7012 15.493C28.6727 15.3498 28.5455 14.8154 27.9769 14.6087C27.431 14.4102 26.9963 14.7092 26.8863 14.7889L27.4731 15.5986Z" fill="#C23D00"/>
</svg>
