<svg width="111" height="36" viewBox="0 0 111 36" fill="none" xmlns="http://www.w3.org/2000/svg">
<path d="M27 12C29.4853 12 31.5 9.98528 31.5 7.5C31.5 5.01472 29.4853 3 27 3C24.5147 3 22.5 5.01472 22.5 7.5C22.5 9.98528 24.5147 12 27 12Z" stroke="#C23D00" stroke-width="2" stroke-linecap="round" stroke-linejoin="round"/>
<path d="M9 22.5C11.4853 22.5 13.5 20.4853 13.5 18C13.5 15.5147 11.4853 13.5 9 13.5C6.51472 13.5 4.5 15.5147 4.5 18C4.5 20.4853 6.51472 22.5 9 22.5Z" stroke="#C23D00" stroke-width="2" stroke-linecap="round" stroke-linejoin="round"/>
<path d="M27 33C29.4853 33 31.5 30.9853 31.5 28.5C31.5 26.0147 29.4853 24 27 24C24.5147 24 22.5 26.0147 22.5 28.5C22.5 30.9853 24.5147 33 27 33Z" stroke="#C23D00" stroke-width="2" stroke-linecap="round" stroke-linejoin="round"/>
<path d="M12.885 20.2649L23.13 26.2349" stroke="#C23D00" stroke-width="2" stroke-linecap="round" stroke-linejoin="round"/>
<path d="M23.115 9.76489L12.885 15.7349" stroke="#C23D00" stroke-width="2" stroke-linecap="round" stroke-linejoin="round"/>
<path d="M46.208 27.216C45.792 27.216 45.488 27.136 45.296 26.976C45.104 26.8 45 26.56 44.984 26.256L45.128 25.296C44.984 25.52 44.752 25.784 44.432 26.088C44.112 26.392 43.696 26.656 43.184 26.88C42.672 27.104 42.048 27.216 41.312 27.216C40.56 27.216 39.848 27.064 39.176 26.76C38.52 26.456 37.936 26.032 37.424 25.488C36.912 24.928 36.512 24.296 36.224 23.592C35.936 22.888 35.792 22.128 35.792 21.312C35.792 20.528 35.936 19.792 36.224 19.104C36.512 18.4 36.912 17.784 37.424 17.256C37.952 16.712 38.544 16.288 39.2 15.984C39.856 15.664 40.56 15.504 41.312 15.504C41.984 15.504 42.552 15.6 43.016 15.792C43.496 15.968 43.904 16.2 44.24 16.488C44.576 16.76 44.864 17.056 45.104 17.376L45.008 16.536C44.992 16.184 45.08 15.928 45.272 15.768C45.48 15.592 45.8 15.504 46.232 15.504C46.616 15.504 46.896 15.568 47.072 15.696C47.248 15.808 47.36 15.968 47.408 16.176C47.456 16.384 47.48 16.624 47.48 16.896V25.872C47.48 26.128 47.456 26.36 47.408 26.568C47.36 26.776 47.248 26.936 47.072 27.048C46.896 27.16 46.608 27.216 46.208 27.216ZM41.696 24.744C42.288 24.744 42.816 24.6 43.28 24.312C43.76 24.008 44.144 23.6 44.432 23.088C44.72 22.576 44.864 22 44.864 21.36C44.864 20.688 44.712 20.096 44.408 19.584C44.12 19.072 43.736 18.672 43.256 18.384C42.776 18.096 42.24 17.952 41.648 17.952C40.992 17.952 40.416 18.104 39.92 18.408C39.424 18.712 39.032 19.12 38.744 19.632C38.456 20.144 38.312 20.728 38.312 21.384C38.312 22.024 38.456 22.6 38.744 23.112C39.032 23.624 39.432 24.024 39.944 24.312C40.456 24.6 41.04 24.744 41.696 24.744ZM51.3029 27.24C50.9189 27.24 50.6389 27.176 50.4629 27.048C50.2869 26.936 50.1749 26.784 50.1269 26.592C50.0789 26.4 50.0549 26.184 50.0549 25.944V16.728C50.0549 16.488 50.0789 16.28 50.1269 16.104C50.1909 15.912 50.3109 15.768 50.4869 15.672C50.6629 15.56 50.9509 15.504 51.3509 15.504C51.7669 15.504 52.0629 15.592 52.2389 15.768C52.4309 15.928 52.5269 16.2 52.5269 16.584L52.3829 17.4C52.4629 17.208 52.6069 17 52.8149 16.776C53.0229 16.552 53.2709 16.344 53.5589 16.152C53.8629 15.944 54.1909 15.776 54.5429 15.648C54.8949 15.52 55.2549 15.456 55.6229 15.456C56.1669 15.456 56.6549 15.552 57.0869 15.744C57.5349 15.936 57.9349 16.208 58.2869 16.56C58.6389 16.912 58.9349 17.336 59.1749 17.832C59.4629 17.368 59.7829 16.96 60.1349 16.608C60.4869 16.256 60.8869 15.976 61.3349 15.768C61.7829 15.56 62.2949 15.456 62.8709 15.456C63.7989 15.456 64.5749 15.688 65.1989 16.152C65.8229 16.616 66.2949 17.272 66.6149 18.12C66.9349 18.952 67.0949 19.96 67.0949 21.144V25.944C67.0949 26.184 67.0709 26.408 67.0229 26.616C66.9749 26.808 66.8549 26.96 66.6629 27.072C66.4869 27.184 66.2069 27.24 65.8229 27.24C65.4229 27.24 65.1269 27.176 64.9349 27.048C64.7589 26.936 64.6469 26.784 64.5989 26.592C64.5509 26.384 64.5269 26.16 64.5269 25.92V21.12C64.5269 20.464 64.4469 19.904 64.2869 19.44C64.1429 18.96 63.9109 18.592 63.5909 18.336C63.2869 18.08 62.8949 17.952 62.4149 17.952C61.9029 17.952 61.4549 18.08 61.0709 18.336C60.6869 18.592 60.3829 18.952 60.1589 19.416C59.9509 19.88 59.8469 20.448 59.8469 21.12V25.968C59.8469 26.224 59.7989 26.456 59.7029 26.664C59.6229 26.872 59.4709 27.024 59.2469 27.12C59.0389 27.216 58.7509 27.248 58.3829 27.216C58.0469 27.2 57.7989 27.128 57.6389 27C57.4789 26.872 57.3829 26.72 57.3509 26.544C57.3189 26.352 57.3029 26.144 57.3029 25.92V21.12C57.3029 20.464 57.2229 19.904 57.0629 19.44C56.9189 18.96 56.6869 18.592 56.3669 18.336C56.0629 18.08 55.6629 17.952 55.1669 17.952C54.6389 17.952 54.1829 18.088 53.7989 18.36C53.4149 18.632 53.1189 19.008 52.9109 19.488C52.7029 19.952 52.5989 20.496 52.5989 21.12V25.968C52.5989 26.208 52.5749 26.424 52.5269 26.616C52.4789 26.808 52.3589 26.96 52.1669 27.072C51.9909 27.184 51.7029 27.24 51.3029 27.24ZM75.719 27.096C74.935 27.096 74.231 26.952 73.607 26.664C72.983 26.376 72.455 25.968 72.023 25.44C71.591 24.912 71.255 24.296 71.015 23.592C70.791 22.888 70.679 22.12 70.679 21.288C70.695 20.456 70.815 19.688 71.039 18.984C71.279 18.28 71.615 17.664 72.047 17.136C72.479 16.608 72.999 16.2 73.607 15.912C74.231 15.624 74.935 15.48 75.719 15.48C76.455 15.48 77.143 15.632 77.783 15.936C78.439 16.224 79.015 16.632 79.511 17.16C80.007 17.688 80.399 18.312 80.687 19.032C80.975 19.752 81.119 20.52 81.119 21.336C81.119 22.168 80.975 22.936 80.687 23.64C80.399 24.344 80.007 24.96 79.511 25.488C79.015 26 78.439 26.4 77.783 26.688C77.143 26.96 76.455 27.096 75.719 27.096ZM70.847 32.04C70.463 32.04 70.175 31.984 69.983 31.872C69.807 31.76 69.695 31.608 69.647 31.416C69.599 31.224 69.575 31.008 69.575 30.768V16.8C69.575 16.544 69.591 16.32 69.623 16.128C69.671 15.936 69.783 15.784 69.959 15.672C70.151 15.56 70.439 15.504 70.823 15.504C71.207 15.504 71.503 15.568 71.711 15.696C71.919 15.808 72.055 16.016 72.119 16.32V30.744C72.135 30.984 72.111 31.2 72.047 31.392C71.999 31.6 71.879 31.76 71.687 31.872C71.511 31.984 71.231 32.04 70.847 32.04ZM75.359 24.72C75.967 24.72 76.511 24.576 76.991 24.288C77.487 24 77.879 23.6 78.167 23.088C78.455 22.56 78.599 21.968 78.599 21.312C78.599 20.656 78.455 20.072 78.167 19.56C77.879 19.048 77.495 18.656 77.015 18.384C76.535 18.096 75.991 17.952 75.383 17.952C74.775 17.952 74.223 18.096 73.727 18.384C73.247 18.672 72.863 19.072 72.575 19.584C72.303 20.08 72.167 20.656 72.167 21.312C72.167 21.968 72.311 22.56 72.599 23.088C72.887 23.6 73.271 24 73.751 24.288C74.231 24.576 74.767 24.72 75.359 24.72ZM90.4396 27.36C89.3356 27.36 88.3516 27.16 87.4876 26.76C86.6396 26.36 85.9196 25.808 85.3276 25.104C84.7356 24.4 84.2876 23.584 83.9836 22.656C83.6956 21.712 83.5516 20.696 83.5516 19.608V11.784C83.5516 11.528 83.5756 11.304 83.6236 11.112C83.6716 10.904 83.7836 10.744 83.9596 10.632C84.1516 10.52 84.4476 10.464 84.8476 10.464C85.2636 10.464 85.5596 10.52 85.7356 10.632C85.9116 10.744 86.0236 10.904 86.0716 11.112C86.1356 11.304 86.1676 11.536 86.1676 11.808V19.608C86.1676 20.568 86.3276 21.44 86.6476 22.224C86.9676 22.992 87.4476 23.608 88.0876 24.072C88.7276 24.52 89.5356 24.744 90.5116 24.744C91.4076 24.744 92.1756 24.536 92.8156 24.12C93.4556 23.704 93.9516 23.112 94.3036 22.344C94.6556 21.56 94.8316 20.64 94.8316 19.584V11.64C94.8316 11.416 94.8556 11.216 94.9036 11.04C94.9676 10.864 95.0876 10.728 95.2636 10.632C95.4556 10.52 95.7516 10.464 96.1516 10.464C96.5356 10.464 96.8156 10.528 96.9916 10.656C97.1836 10.768 97.3036 10.92 97.3516 11.112C97.3996 11.304 97.4236 11.536 97.4236 11.808V19.656C97.4236 20.744 97.2716 21.752 96.9676 22.68C96.6636 23.608 96.2076 24.424 95.5996 25.128C95.0076 25.816 94.2796 26.36 93.4156 26.76C92.5516 27.16 91.5596 27.36 90.4396 27.36ZM103.844 27.384C103.444 27.384 103.02 27.336 102.572 27.24C102.14 27.16 101.716 27.04 101.3 26.88C100.884 26.72 100.524 26.528 100.22 26.304C99.9162 26.08 99.7082 25.832 99.5962 25.56C99.5322 25.4 99.5002 25.248 99.5002 25.104C99.5002 24.96 99.5322 24.816 99.5962 24.672C99.6762 24.512 99.7882 24.352 99.9322 24.192C100.076 24.016 100.228 23.92 100.388 23.904C100.548 23.888 100.748 23.968 100.988 24.144C101.18 24.24 101.396 24.352 101.636 24.48C101.892 24.608 102.148 24.736 102.404 24.864C102.66 24.976 102.924 25.072 103.196 25.152C103.468 25.216 103.74 25.248 104.012 25.248C104.668 25.248 105.188 25.136 105.572 24.912C105.972 24.672 106.172 24.352 106.172 23.952C106.172 23.712 106.116 23.504 106.004 23.328C105.892 23.152 105.74 23.008 105.548 22.896C105.356 22.784 105.14 22.68 104.9 22.584C104.66 22.488 104.396 22.4 104.108 22.32C103.82 22.24 103.524 22.16 103.22 22.08C102.804 21.968 102.396 21.84 101.996 21.696C101.596 21.536 101.228 21.336 100.892 21.096C100.572 20.84 100.316 20.528 100.124 20.16C99.9322 19.776 99.8362 19.304 99.8362 18.744C99.8362 18.04 100.004 17.448 100.34 16.968C100.676 16.472 101.164 16.088 101.804 15.816C102.444 15.544 103.204 15.408 104.084 15.408C104.404 15.408 104.716 15.432 105.02 15.48C105.324 15.528 105.612 15.6 105.884 15.696C106.172 15.776 106.444 15.888 106.7 16.032C106.972 16.16 107.228 16.312 107.468 16.488C107.804 16.696 107.98 16.936 107.996 17.208C108.012 17.464 107.916 17.744 107.708 18.048C107.548 18.256 107.38 18.4 107.204 18.48C107.028 18.56 106.844 18.544 106.652 18.432C106.396 18.272 106.124 18.12 105.836 17.976C105.548 17.832 105.244 17.712 104.924 17.616C104.62 17.504 104.3 17.448 103.964 17.448C103.612 17.448 103.3 17.504 103.028 17.616C102.756 17.712 102.54 17.864 102.38 18.072C102.236 18.264 102.164 18.488 102.164 18.744C102.164 18.984 102.228 19.184 102.356 19.344C102.484 19.488 102.652 19.616 102.86 19.728C103.084 19.824 103.34 19.912 103.628 19.992C103.916 20.056 104.228 20.128 104.564 20.208C105.012 20.304 105.468 20.432 105.932 20.592C106.412 20.736 106.844 20.936 107.228 21.192C107.628 21.432 107.948 21.76 108.188 22.176C108.444 22.592 108.572 23.136 108.572 23.808C108.572 24.928 108.148 25.808 107.3 26.448C106.452 27.072 105.3 27.384 103.844 27.384Z" fill="#C23D00"/>
</svg>
